<svg width="32" height="32" viewBox="0 0 32 32" fill="none" xmlns="http://www.w3.org/2000/svg">
<g clip-path="url(#clip0_1778_2931)">
<path d="M9.33317 12.0003C10.8059 12.0003 11.9998 10.8064 11.9998 9.33366C11.9998 7.8609 10.8059 6.66699 9.33317 6.66699C7.86041 6.66699 6.6665 7.8609 6.6665 9.33366C6.6665 10.8064 7.86041 12.0003 9.33317 12.0003Z" fill="#041A2F"/>
<path d="M26.6665 17.3337V6.44033C26.6665 4.36033 24.9732 2.66699 22.8932 2.66699C21.8932 2.66699 20.9332 3.06699 20.2265 3.77366L18.5598 5.44033C18.3465 5.37366 18.1198 5.33366 17.8798 5.33366C17.3465 5.33366 16.8532 5.49366 16.4398 5.76033L20.1198 9.44032C20.3865 9.02699 20.5465 8.53366 20.5465 8.00033C20.5465 7.76033 20.5065 7.54699 20.4532 7.32032L22.1198 5.65366C22.3198 5.45366 22.5998 5.33366 22.8932 5.33366C23.5065 5.33366 23.9998 5.82699 23.9998 6.44033V17.3337H14.8665C14.4665 17.0537 14.1065 16.7337 13.7732 16.3737L11.9065 14.307C11.6532 14.027 11.3332 13.8003 10.9865 13.6403C10.5732 13.4403 10.1198 13.3337 9.65317 13.3337C7.99984 13.347 6.6665 14.6803 6.6665 16.3337V17.3337H2.6665V25.3337C2.6665 26.8003 3.8665 28.0003 5.33317 28.0003C5.33317 28.7337 5.93317 29.3337 6.6665 29.3337H25.3332C26.0665 29.3337 26.6665 28.7337 26.6665 28.0003C28.1332 28.0003 29.3332 26.8003 29.3332 25.3337V17.3337H26.6665Z" fill="#041A2F"/>
</g>
<defs>
<clipPath id="clip0_1778_2931">
<rect width="32" height="32" fill="white"/>
</clipPath>
</defs>
</svg>
