<svg width="32" height="32" viewBox="0 0 32 32" fill="none" xmlns="http://www.w3.org/2000/svg">
<g clip-path="url(#clip0_1611_210501)">
<path d="M25.2267 8.01342C24.96 7.22675 24.2133 6.66675 23.3333 6.66675H8.66667C7.78667 6.66675 7.05333 7.22675 6.77333 8.01342L4 16.0001V26.6667C4 27.4001 4.6 28.0001 5.33333 28.0001H6.66667C7.4 28.0001 8 27.4001 8 26.6667V25.3334H24V26.6667C24 27.4001 24.6 28.0001 25.3333 28.0001H26.6667C27.4 28.0001 28 27.4001 28 26.6667V16.0001L25.2267 8.01342ZM8.66667 21.3334C7.56 21.3334 6.66667 20.4401 6.66667 19.3334C6.66667 18.2267 7.56 17.3334 8.66667 17.3334C9.77333 17.3334 10.6667 18.2267 10.6667 19.3334C10.6667 20.4401 9.77333 21.3334 8.66667 21.3334ZM23.3333 21.3334C22.2267 21.3334 21.3333 20.4401 21.3333 19.3334C21.3333 18.2267 22.2267 17.3334 23.3333 17.3334C24.44 17.3334 25.3333 18.2267 25.3333 19.3334C25.3333 20.4401 24.44 21.3334 23.3333 21.3334ZM6.66667 14.6667L8.66667 8.66675H23.3333L25.3333 14.6667H6.66667Z" fill="black"/>
</g>
<defs>
<clipPath id="clip0_1611_210501">
<rect width="32" height="32" fill="white"/>
</clipPath>
</defs>
</svg>
