<svg width="32" height="32" viewBox="0 0 32 32" fill="none" xmlns="http://www.w3.org/2000/svg">
<g clip-path="url(#clip0_1778_2735)">
<path d="M25.2267 8.01366C24.96 7.22699 24.2133 6.66699 23.3333 6.66699H8.66667C7.78667 6.66699 7.05333 7.22699 6.77333 8.01366L4 16.0003V26.667C4 27.4003 4.6 28.0003 5.33333 28.0003H6.66667C7.4 28.0003 8 27.4003 8 26.667V25.3337H24V26.667C24 27.4003 24.6 28.0003 25.3333 28.0003H26.6667C27.4 28.0003 28 27.4003 28 26.667V16.0003L25.2267 8.01366ZM8.66667 21.3337C7.56 21.3337 6.66667 20.4403 6.66667 19.3337C6.66667 18.227 7.56 17.3337 8.66667 17.3337C9.77333 17.3337 10.6667 18.227 10.6667 19.3337C10.6667 20.4403 9.77333 21.3337 8.66667 21.3337ZM23.3333 21.3337C22.2267 21.3337 21.3333 20.4403 21.3333 19.3337C21.3333 18.227 22.2267 17.3337 23.3333 17.3337C24.44 17.3337 25.3333 18.227 25.3333 19.3337C25.3333 20.4403 24.44 21.3337 23.3333 21.3337ZM6.66667 14.667L8.66667 8.66699H23.3333L25.3333 14.667H6.66667Z" fill="#041A2F"/>
</g>
<defs>
<clipPath id="clip0_1778_2735">
<rect width="32" height="32" fill="white"/>
</clipPath>
</defs>
</svg>
