<svg width="32" height="32" viewBox="0 0 32 32" fill="none" xmlns="http://www.w3.org/2000/svg">
<g clip-path="url(#clip0_1778_1315)">
<path d="M26.6665 13.3337V9.33366C26.6665 7.86699 25.4665 6.66699 23.9998 6.66699H7.99984C6.53317 6.66699 5.33317 7.86699 5.33317 9.33366V13.3337C3.8665 13.3337 2.6665 14.5337 2.6665 16.0003V22.667H4.43984L5.33317 25.3337H6.6665L7.55984 22.667H24.4532L25.3332 25.3337H26.6665L27.5598 22.667H29.3332V16.0003C29.3332 14.5337 28.1332 13.3337 26.6665 13.3337ZM14.6665 13.3337H7.99984V9.33366H14.6665V13.3337ZM23.9998 13.3337H17.3332V9.33366H23.9998V13.3337Z" fill="#041A2F"/>
</g>
<defs>
<clipPath id="clip0_1778_1315">
<rect width="32" height="32" fill="white"/>
</clipPath>
</defs>
</svg>
